<svg xmlns="http://www.w3.org/2000/svg" width="247.5" height="21" viewBox="0 0 247.5 21">
  <g id="nombre_horizontal_platform" data-name="nombre_horizontal platform" transform="translate(-706 -166.5)">
    <line id="Línea_1" data-name="Línea 1" y2="19" transform="translate(707 167.5)" fill="none" stroke="#2aa4d5" stroke-linecap="round" stroke-width="2"/>
    <text id="Security_Software" data-name="Security Software" transform="translate(838.5 171.412)" fill="#fff" font-size="10" font-family="Roboto-Regular, Roboto"><tspan x="0" y="10">Security Software</tspan></text>
    <g id="blackhole_logo_white" transform="translate(718.5 170.412)">
      <g id="Capa_1" data-name="Capa 1">
        <path id="Trazado_1" data-name="Trazado 1" d="M10.789,9.748c0,2.482-1.5,4.263-5.164,4.263H0V0H5.1c3.383,0,5.1,1.481,5.1,3.863a2.938,2.938,0,0,1-1.5,2.742v.06A3.175,3.175,0,0,1,10.789,9.748ZM3.443,2.7V5.745H4.924c1.241,0,1.841-.62,1.841-1.521C6.765,3.2,6.1,2.7,4.924,2.7ZM7.306,9.608c0-.961-.641-1.521-1.861-1.521h-2v3.223h2A1.636,1.636,0,0,0,7.306,9.608Z" fill="#fff"/>
        <path id="Trazado_2" data-name="Trazado 2" d="M65.663,0V14.011H62.4V0Z" transform="translate(-49.91)" fill="#fff"/>
        <path id="Trazado_3" data-name="Trazado 3" d="M96.188,22.183v6.305H92.945v-.941a3.513,3.513,0,0,1-2.782,1.2c-1.361,0-3.463-.52-3.463-2.982,0-3.363,4.363-3.363,5.044-3.363h1.2v-.04a1.483,1.483,0,0,0-1.661-1.641,3.177,3.177,0,0,0-1.922.641L87.24,19.921A6.036,6.036,0,0,1,91.8,18.1C95.047,18.1,96.188,19.761,96.188,22.183Zm-3.243,1.841h-.26c-1.621,0-2.7.3-2.7,1.321,0,.741.6,1.021,1.3,1.021a2.2,2.2,0,0,0,1.661-.721Z" transform="translate(-69.346 -14.477)" fill="#fff"/>
        <path id="Trazado_4" data-name="Trazado 4" d="M149.366,24.645l2.8,1.681a5.361,5.361,0,0,1-4.624,2.422,5.326,5.326,0,1,1,0-10.649,5.316,5.316,0,0,1,4.624,2.422l-2.8,1.681a2.178,2.178,0,0,0-3.983,1.221,2.1,2.1,0,0,0,2.162,2.162A2.154,2.154,0,0,0,149.366,24.645Z" transform="translate(-113.657 -14.477)" fill="#fff"/>
        <path id="Trazado_5" data-name="Trazado 5" d="M205.045,14.011l-2.882-4.464v4.464H198.9V0h3.263V8.066l2.782-4.2h3.643l-3.383,4.8,3.643,5.344Z" transform="translate(-159.088)" fill="#fff"/>
        <path id="Trazado_6" data-name="Trazado 6" d="M267.53,0V14.011h-3.423V8.567h-5.084v5.444H255.6V0h3.423V5.324h5.084V0Z" transform="translate(-204.439)" fill="#fff"/>
        <path id="Trazado_7" data-name="Trazado 7" d="M334.589,23.424a5.446,5.446,0,1,1-5.444-5.324A5.24,5.24,0,0,1,334.589,23.424Zm-3.263,0a2.172,2.172,0,1,0-2.172,2.172A2.172,2.172,0,0,0,331.326,23.424Z" transform="translate(-258.908 -14.477)" fill="#fff"/>
        <path id="Trazado_8" data-name="Trazado 8" d="M389.355,0V14.011H386.09V0Z" transform="translate(-308.81)" fill="#fff"/>
        <path id="Trazado_9" data-name="Trazado 9" d="M420.878,24.405h-7.326a2.4,2.4,0,0,0,2.542,1.721,2.744,2.744,0,0,0,2.082-.881l2.282,1.361a5.076,5.076,0,0,1-4.364,2.142c-3.425,0-5.707-2.162-5.707-5.324a5.244,5.244,0,0,1,5.246-5.324C418.636,18.1,421.278,20.142,420.878,24.405Zm-2.942-1.962a2.044,2.044,0,0,0-2.2-1.721,2.188,2.188,0,0,0-2.182,1.721Z" transform="translate(-328.244 -14.477)" fill="#fff"/>
        <circle id="Elipse_1" data-name="Elipse 1" cx="1.107" cy="1.107" r="1.107" transform="translate(96.968 4.744)" fill="#2aa4d5"/>
        <rect id="Rectángulo_1" data-name="Rectángulo 1" width="0.817" height="2.216" rx="0.408" transform="translate(99.88 4.742)" fill="#2aa4d5"/>
        <rect id="Rectángulo_2" data-name="Rectángulo 2" width="0.817" height="2.216" rx="0.408" transform="translate(101.367 4.774)" fill="#2aa4d5"/>
        <circle id="Elipse_2" data-name="Elipse 2" cx="1.107" cy="1.107" r="1.107" transform="translate(102.91 4.86)" fill="#2aa4d5"/>
        <rect id="Rectángulo_3" data-name="Rectángulo 3" width="0.817" height="2.216" rx="0.408" transform="translate(108.827 4.858)" fill="#2aa4d5"/>
        <rect id="Rectángulo_4" data-name="Rectángulo 4" width="0.817" height="2.216" rx="0.408" transform="translate(113.629 4.858)" fill="#2aa4d5"/>
        <circle id="Elipse_3" data-name="Elipse 3" cx="1.107" cy="1.107" r="1.107" transform="translate(105.719 4.936)" fill="#2aa4d5"/>
        <circle id="Elipse_4" data-name="Elipse 4" cx="1.107" cy="1.107" r="1.107" transform="translate(110.514 4.878)" fill="#2aa4d5"/>
        <circle id="Elipse_5" data-name="Elipse 5" cx="1.107" cy="1.107" r="1.107" transform="translate(96.968 7.89)" fill="#2aa4d5"/>
        <rect id="Rectángulo_5" data-name="Rectángulo 5" width="0.817" height="2.216" rx="0.408" transform="translate(99.88 7.89)" fill="#2aa4d5"/>
        <circle id="Elipse_6" data-name="Elipse 6" cx="1.107" cy="1.107" r="1.107" transform="translate(102.652 7.924)" fill="#2aa4d5"/>
        <rect id="Rectángulo_6" data-name="Rectángulo 6" width="0.817" height="2.216" rx="0.408" transform="translate(101.367 7.922)" fill="#2aa4d5"/>
        <circle id="Elipse_7" data-name="Elipse 7" cx="1.107" cy="1.107" r="1.107" transform="translate(105.478 7.89)" fill="#2aa4d5"/>
        <circle id="Elipse_8" data-name="Elipse 8" cx="1.107" cy="1.107" r="1.107" transform="translate(108.309 7.89)" fill="#2aa4d5"/>
        <rect id="Rectángulo_7" data-name="Rectángulo 7" width="0.817" height="2.216" rx="0.408" transform="translate(113.823 7.89)" fill="#2aa4d5"/>
        <circle id="Elipse_9" data-name="Elipse 9" cx="1.107" cy="1.107" r="1.107" transform="translate(111.035 7.866)" fill="#2aa4d5"/>
        <circle id="Elipse_10" data-name="Elipse 10" cx="1.107" cy="1.107" r="1.107" transform="translate(97.024 10.991)" fill="#2aa4d5"/>
        <rect id="Rectángulo_8" data-name="Rectángulo 8" width="0.817" height="2.216" rx="0.408" transform="translate(99.936 10.989)" fill="#2aa4d5"/>
        <rect id="Rectángulo_9" data-name="Rectángulo 9" width="0.817" height="2.216" rx="0.408" transform="translate(101.423 11.023)" fill="#2aa4d5"/>
        <rect id="Rectángulo_10" data-name="Rectángulo 10" width="0.817" height="2.216" rx="0.408" transform="translate(102.962 11.023)" fill="#2aa4d5"/>
        <rect id="Rectángulo_11" data-name="Rectángulo 11" width="0.817" height="2.216" rx="0.408" transform="translate(110.082 11.023)" fill="#2aa4d5"/>
        <circle id="Elipse_11" data-name="Elipse 11" cx="1.107" cy="1.107" r="1.107" transform="translate(104.5 11.053)" fill="#2aa4d5"/>
        <circle id="Elipse_12" data-name="Elipse 12" cx="1.107" cy="1.107" r="1.107" transform="translate(107.226 11.029)" fill="#2aa4d5"/>
        <circle id="Elipse_13" data-name="Elipse 13" cx="1.107" cy="1.107" r="1.107" transform="translate(111.515 11.041)" fill="#2aa4d5"/>
        <circle id="Elipse_14" data-name="Elipse 14" cx="1.107" cy="1.107" r="1.107" transform="translate(96.938 1.461)" fill="#2aa4d5"/>
        <rect id="Rectángulo_12" data-name="Rectángulo 12" width="0.817" height="2.216" rx="0.408" transform="translate(99.852 1.461)" fill="#2aa4d5"/>
        <rect id="Rectángulo_13" data-name="Rectángulo 13" width="0.817" height="2.216" rx="0.408" transform="translate(101.339 1.493)" fill="#2aa4d5"/>
        <circle id="Elipse_15" data-name="Elipse 15" cx="1.107" cy="1.107" r="1.107" transform="translate(102.846 1.461)" fill="#2aa4d5"/>
        <circle id="Elipse_16" data-name="Elipse 16" cx="1.107" cy="1.107" r="1.107" transform="translate(107.278 1.461)" fill="#2aa4d5"/>
        <rect id="Rectángulo_14" data-name="Rectángulo 14" width="0.817" height="2.216" rx="0.408" transform="translate(105.789 1.461)" fill="#2aa4d5"/>
        <circle id="Elipse_17" data-name="Elipse 17" cx="1.107" cy="1.107" r="1.107" transform="translate(109.956 1.427)" fill="#2aa4d5"/>
        <circle id="Elipse_18" data-name="Elipse 18" cx="1.107" cy="1.107" r="1.107" transform="translate(112.786 1.427)" fill="#2aa4d5"/>
      </g>
    </g>
  </g>
</svg>
