<svg width="45" height="46" viewBox="0 0 45 46" fill="none" xmlns="http://www.w3.org/2000/svg">
  <path
    d="M20.625 28.625H24.375V24.875H28.125V21.125H24.375V17.375H20.625V21.125H16.875V24.875H20.625V28.625ZM7.5 36.125V32.375H11.25V19.25C11.25 16.6562 12.0312 14.3512 13.5937 12.335C15.1562 10.32 17.1875 9 19.6875 8.375V7.0625C19.6875 6.28125 19.9612 5.6175 20.5087 5.07125C21.055 4.52375 21.7187 4.25 22.5 4.25C23.2812 4.25 23.945 4.52375 24.4912 5.07125C25.0387 5.6175 25.3125 6.28125 25.3125 7.0625V8.375C27.8125 9 29.8437 10.32 31.4062 12.335C32.9687 14.3512 33.75 16.6562 33.75 19.25V32.375H37.5V36.125H7.5ZM22.5 41.75C21.4687 41.75 20.5862 41.3831 19.8525 40.6494C19.1175 39.9144 18.75 39.0312 18.75 38H26.25C26.25 39.0312 25.8831 39.9144 25.1494 40.6494C24.4144 41.3831 23.5312 41.75 22.5 41.75Z"
    fill="#334155" />
</svg>