<svg width="50" height="50" viewBox="0 0 50 50" fill="currentColor" xmlns="http://www.w3.org/2000/svg">
  <path
    d="M14.4531 12.207C14.2383 12.207 14.0625 12.3828 14.0625 12.5977V14.9414C14.0625 15.1562 14.2383 15.332 14.4531 15.332H33.2031C33.418 15.332 33.5938 15.1562 33.5938 14.9414V12.5977C33.5938 12.3828 33.418 12.207 33.2031 12.207H14.4531ZM23.4375 19.2383H14.4531C14.2383 19.2383 14.0625 19.4141 14.0625 19.6289V21.9727C14.0625 22.1875 14.2383 22.3633 14.4531 22.3633H23.4375C23.6523 22.3633 23.8281 22.1875 23.8281 21.9727V19.6289C23.8281 19.4141 23.6523 19.2383 23.4375 19.2383ZM21.0938 41.6016H10.1562V7.22656H37.5V22.8516C37.5 23.0664 37.6758 23.2422 37.8906 23.2422H40.625C40.8398 23.2422 41.0156 23.0664 41.0156 22.8516V5.27344C41.0156 4.40918 40.3174 3.71094 39.4531 3.71094H8.20312C7.33887 3.71094 6.64062 4.40918 6.64062 5.27344V43.5547C6.64062 44.4189 7.33887 45.1172 8.20312 45.1172H21.0938C21.3086 45.1172 21.4844 44.9414 21.4844 44.7266V41.9922C21.4844 41.7773 21.3086 41.6016 21.0938 41.6016ZM42.5781 37.3047H35.5469V35.5176C37.8076 34.8438 39.4531 32.7539 39.4531 30.2734C39.4531 27.251 37.0068 24.8047 33.9844 24.8047C30.9619 24.8047 28.5156 27.251 28.5156 30.2734C28.5156 32.749 30.1611 34.8438 32.4219 35.5176V37.3047H25.3906C24.9609 37.3047 24.6094 37.6562 24.6094 38.0859V45.5078C24.6094 45.9375 24.9609 46.2891 25.3906 46.2891H42.5781C43.0078 46.2891 43.3594 45.9375 43.3594 45.5078V38.0859C43.3594 37.6562 43.0078 37.3047 42.5781 37.3047ZM31.543 30.2734C31.543 28.9258 32.6367 27.832 33.9844 27.832C35.332 27.832 36.4258 28.9258 36.4258 30.2734C36.4258 31.6211 35.332 32.7148 33.9844 32.7148C32.6367 32.7148 31.543 31.6211 31.543 30.2734ZM40.332 43.2617H27.6367V40.332H40.332V43.2617Z"
    />
</svg>