<svg width="40" height="34" viewBox="0 0 40 34" fill="none" xmlns="http://www.w3.org/2000/svg">
  <path
    d="M28.9431 0.624616C28.6057 0.696942 28.3049 0.886275 28.0937 1.15911C27.8825 1.43194 27.7747 1.77068 27.7892 2.11539V31.3462C27.755 31.5553 27.7666 31.7694 27.8233 31.9736C27.88 32.1778 27.9805 32.3672 28.1177 32.5287C28.2549 32.6902 28.4255 32.82 28.6179 32.9089C28.8102 32.9979 29.0196 33.044 29.2315 33.044C29.4435 33.044 29.6529 32.9979 29.8452 32.9089C30.0375 32.82 30.2082 32.6902 30.3454 32.5287C30.4826 32.3672 30.5831 32.1778 30.6398 31.9736C30.6965 31.7694 30.7081 31.5553 30.6738 31.3462V2.11539C30.6787 1.90992 30.6402 1.70573 30.5608 1.51615C30.4815 1.32658 30.363 1.15587 30.2132 1.01519C30.0633 0.874507 29.8855 0.767006 29.6913 0.699705C29.4971 0.632404 29.2909 0.606818 29.0862 0.624616C29.0385 0.62228 28.9907 0.62228 28.9431 0.624616V0.624616ZM10.4815 2.16308C10.1442 2.2354 9.84332 2.42474 9.63215 2.69757C9.42098 2.9704 9.31313 3.30915 9.3277 3.65385V29.8077C9.29343 30.0168 9.30506 30.2309 9.36177 30.4351C9.41848 30.6393 9.51892 30.8287 9.65612 30.9902C9.79333 31.1518 9.96401 31.2815 10.1564 31.3705C10.3487 31.4595 10.5581 31.5055 10.77 31.5055C10.9819 31.5055 11.1913 31.4595 11.3837 31.3705C11.576 31.2815 11.7467 31.1518 11.8839 30.9902C12.0211 30.8287 12.1215 30.6393 12.1782 30.4351C12.235 30.2309 12.2466 30.0168 12.2123 29.8077V3.65385C12.2172 3.44838 12.1787 3.24419 12.0993 3.05461C12.0199 2.86504 11.9014 2.69434 11.7516 2.55365C11.6018 2.41297 11.424 2.30547 11.2298 2.23817C11.0356 2.17087 10.8294 2.14528 10.6246 2.16308C10.577 2.16074 10.5292 2.16074 10.4815 2.16308V2.16308ZM24.3277 6.77846C23.9904 6.85079 23.6895 7.04012 23.4783 7.31295C23.2671 7.58579 23.1593 7.92453 23.1738 8.26923V25.1923C23.1388 25.4017 23.1499 25.6163 23.2062 25.821C23.2625 26.0257 23.3628 26.2157 23.5 26.3777C23.6372 26.5397 23.808 26.6699 24.0007 26.7592C24.1933 26.8485 24.4031 26.8948 24.6154 26.8948C24.8277 26.8948 25.0375 26.8485 25.2301 26.7592C25.4227 26.6699 25.5936 26.5397 25.7308 26.3777C25.868 26.2157 25.9682 26.0257 26.0246 25.821C26.0809 25.6163 26.0919 25.4017 26.0569 25.1923V8.26923C26.0618 8.06405 26.0233 7.86014 25.9441 7.67079C25.8649 7.48145 25.7467 7.3109 25.5973 7.17027C25.4478 7.02964 25.2703 6.92206 25.0765 6.85456C24.8827 6.78705 24.6768 6.76112 24.4723 6.77846C24.4236 6.77603 24.3748 6.77603 24.3262 6.77846H24.3277ZM5.86616 8.31692C5.52882 8.38925 5.22793 8.57858 5.01676 8.85142C4.80559 9.12425 4.69775 9.46299 4.71231 9.80769V23.6538C4.67731 23.8633 4.68835 24.0778 4.74467 24.2825C4.80099 24.4872 4.90124 24.6772 5.03844 24.8392C5.17564 25.0013 5.3465 25.1315 5.53913 25.2208C5.73176 25.3101 5.94153 25.3563 6.15385 25.3563C6.36617 25.3563 6.57594 25.3101 6.76857 25.2208C6.9612 25.1315 7.13206 25.0013 7.26926 24.8392C7.40646 24.6772 7.50671 24.4872 7.56303 24.2825C7.61935 24.0778 7.63039 23.8633 7.59539 23.6538V9.80769C7.60023 9.60251 7.5618 9.3986 7.4826 9.20926C7.4034 9.01991 7.28521 8.84937 7.13572 8.70873C6.98623 8.5681 6.8088 8.46052 6.61498 8.39302C6.42115 8.32551 6.21528 8.29958 6.01077 8.31692C5.96209 8.31449 5.91331 8.31449 5.86462 8.31692H5.86616ZM15.0969 9.85539C14.7596 9.92771 14.4587 10.117 14.2475 10.3899C14.0364 10.6627 13.9285 11.0015 13.9431 11.3462V22.1154C13.9081 22.3248 13.9191 22.5393 13.9754 22.744C14.0318 22.9488 14.132 23.1387 14.2692 23.3008C14.4064 23.4628 14.5773 23.593 14.7699 23.6823C14.9625 23.7716 15.1723 23.8179 15.3846 23.8179C15.5969 23.8179 15.8067 23.7716 15.9993 23.6823C16.192 23.593 16.3628 23.4628 16.5 23.3008C16.6372 23.1387 16.7375 22.9488 16.7938 22.744C16.8501 22.5393 16.8612 22.3248 16.8262 22.1154V11.3462C16.831 11.141 16.7926 10.9371 16.7134 10.7477C16.6342 10.5584 16.516 10.3878 16.3665 10.2472C16.217 10.1066 16.0396 9.99899 15.8457 9.93148C15.6519 9.86397 15.4461 9.83805 15.2415 9.85539C15.1929 9.85295 15.1441 9.85295 15.0954 9.85539H15.0969ZM33.5585 9.85539C33.2211 9.92771 32.9202 10.117 32.7091 10.3899C32.4979 10.6627 32.3901 11.0015 32.4046 11.3462V22.1154C32.3704 22.3245 32.382 22.5386 32.4387 22.7428C32.4954 22.947 32.5958 23.1364 32.733 23.2979C32.8702 23.4594 33.0409 23.5892 33.2333 23.6782C33.4256 23.7671 33.635 23.8132 33.8469 23.8132C34.0588 23.8132 34.2682 23.7671 34.4606 23.6782C34.6529 23.5892 34.8236 23.4594 34.9608 23.2979C35.098 23.1364 35.1985 22.947 35.2552 22.7428C35.3119 22.5386 35.3235 22.3245 35.2892 22.1154V11.3462C35.2941 11.1407 35.2556 10.9365 35.1762 10.7469C35.0968 10.5573 34.9784 10.3866 34.8285 10.246C34.6787 10.1053 34.5009 9.99777 34.3067 9.93047C34.1125 9.86317 33.9063 9.83759 33.7015 9.85539C33.6539 9.85305 33.6061 9.85305 33.5585 9.85539ZM1.25077 12.9323C0.913432 13.0046 0.61255 13.194 0.401379 13.4668C0.190208 13.7396 0.0823622 14.0784 0.0969286 14.4231V19.0385C0.0626633 19.2476 0.0742887 19.4617 0.130999 19.6659C0.18771 19.8701 0.288148 20.0595 0.425353 20.221C0.562557 20.3825 0.733245 20.5123 0.925584 20.6012C1.11792 20.6902 1.32731 20.7363 1.53924 20.7363C1.75116 20.7363 1.96055 20.6902 2.15289 20.6012C2.34523 20.5123 2.51592 20.3825 2.65312 20.221C2.79032 20.0595 2.89076 19.8701 2.94747 19.6659C3.00418 19.4617 3.01581 19.2476 2.98154 19.0385V14.4231C2.98643 14.2176 2.94792 14.0134 2.86854 13.8238C2.78915 13.6343 2.67068 13.4636 2.52085 13.3229C2.37102 13.1822 2.1932 13.0747 1.99901 13.0074C1.80481 12.9401 1.59861 12.9145 1.39385 12.9323C1.34568 12.9299 1.29741 12.9299 1.24924 12.9323H1.25077ZM19.7123 12.9323C19.375 13.0046 19.0741 13.194 18.8629 13.4668C18.6517 13.7396 18.5439 14.0784 18.5585 14.4231V19.0385C18.5235 19.2479 18.5345 19.4624 18.5908 19.6671C18.6471 19.8718 18.7474 20.0618 18.8846 20.2239C19.0218 20.3859 19.1927 20.5161 19.3853 20.6054C19.5779 20.6947 19.7877 20.741 20 20.741C20.2123 20.741 20.4221 20.6947 20.6147 20.6054C20.8074 20.5161 20.9782 20.3859 21.1154 20.2239C21.2526 20.0618 21.3529 19.8718 21.4092 19.6671C21.4655 19.4624 21.4765 19.2479 21.4415 19.0385V14.4231C21.4464 14.2179 21.4079 14.014 21.3287 13.8246C21.2496 13.6353 21.1314 13.4648 20.9819 13.3241C20.8324 13.1835 20.655 13.0759 20.4611 13.0084C20.2673 12.9409 20.0614 12.915 19.8569 12.9323C19.8082 12.9299 19.7595 12.9299 19.7108 12.9323H19.7123ZM38.1738 12.9323C37.8365 13.0046 37.5356 13.194 37.3245 13.4668C37.1133 13.7396 37.0054 14.0784 37.02 14.4231V19.0385C36.9857 19.2476 36.9974 19.4617 37.0541 19.6659C37.1108 19.8701 37.2112 20.0595 37.3484 20.221C37.4856 20.3825 37.6563 20.5123 37.8487 20.6012C38.041 20.6902 38.2504 20.7363 38.4623 20.7363C38.6742 20.7363 38.8836 20.6902 39.076 20.6012C39.2683 20.5123 39.439 20.3825 39.5762 20.221C39.7134 20.0595 39.8138 19.8701 39.8705 19.6659C39.9273 19.4617 39.9389 19.2476 39.9046 19.0385V14.4231C39.9095 14.2176 39.871 14.0134 39.7916 13.8238C39.7122 13.6343 39.5938 13.4636 39.4439 13.3229C39.2941 13.1822 39.1163 13.0747 38.9221 13.0074C38.7279 12.9401 38.5217 12.9145 38.3169 12.9323C38.2693 12.93 38.2215 12.93 38.1738 12.9323Z"
    fill="#334155" />
</svg>