<svg width="150" height="19" viewBox="0 0 150 19" fill="none" xmlns="http://www.w3.org/2000/svg">
  <path
    d="M6.888 18H10.896L17.424 0.24H13.368L10.056 9.216C9.672 10.272 9.336 11.256 8.88 12.96C8.496 11.424 8.16 10.32 7.752 9.216L4.392 0.24H0.24L6.888 18ZM22.0879 12.048C22.0879 15.744 24.7519 18.288 28.4239 18.288C32.0959 18.288 34.7599 15.744 34.7599 12.048C34.7599 8.352 32.0959 5.808 28.4239 5.808C24.7519 5.808 22.0879 8.352 22.0879 12.048ZM25.0159 12.048C25.0159 9.888 26.4079 8.424 28.4239 8.424C30.4399 8.424 31.8319 9.888 31.8319 12.048C31.8319 14.208 30.4399 15.672 28.4239 15.672C26.4079 15.672 25.0159 14.208 25.0159 12.048ZM42.1448 3.768C43.1048 3.768 43.8968 2.976 43.8968 1.992C43.8968 1.008 43.1048 0.24 42.1448 0.24C41.1368 0.24 40.3448 1.008 40.3448 1.992C40.3448 2.976 41.1368 3.768 42.1448 3.768ZM40.6808 18H43.6088V6.144H40.6808V18ZM49.5379 12.048C49.5379 15.816 51.8899 18.312 55.4899 18.312C58.5859 18.312 60.8899 16.416 61.2499 13.656H58.2979C57.9859 14.952 56.9539 15.672 55.4899 15.672C53.6179 15.672 52.4659 14.28 52.4659 12.048C52.4659 9.816 53.7139 8.4 55.5859 8.4C56.9779 8.4 57.9619 9.096 58.2979 10.44H61.2259C60.9139 7.584 58.7059 5.784 55.4659 5.784C51.9619 5.784 49.5379 8.376 49.5379 12.048ZM72.3332 18.312C75.4292 18.312 77.5892 16.752 78.0932 14.16H75.3812C75.0452 15.288 73.9892 15.912 72.3812 15.912C70.4372 15.912 69.3332 14.856 69.1172 12.768L78.0452 12.744V11.856C78.0452 8.16 75.7892 5.784 72.2372 5.784C68.7572 5.784 66.3332 8.352 66.3332 12.072C66.3332 15.744 68.8052 18.312 72.3332 18.312ZM72.2612 8.184C74.0132 8.184 75.1412 9.264 75.1412 10.896H69.1892C69.4772 9.12 70.5332 8.184 72.2612 8.184Z"
    fill="#0EA5E9" />
  <path
    d="M91.5246 12.096C95.1486 12.096 97.5726 9.72 97.5726 6.168C97.5726 2.616 95.1486 0.24 91.5246 0.24H84.3246V18H88.2126V12.096H91.5246ZM90.6606 3.696C92.5326 3.696 93.4686 4.512 93.4686 6.168C93.4686 7.824 92.5326 8.64 90.6606 8.64H88.2126V3.696H90.6606ZM110.732 6.096C110.252 5.976 109.844 5.928 109.436 5.928C107.852 5.928 106.724 6.72 106.22 7.896L106.052 6.168H103.292V18H106.22V12.24C106.22 9.936 107.54 8.808 109.652 8.808H110.732V6.096ZM117.778 3.768C118.738 3.768 119.53 2.976 119.53 1.992C119.53 1.008 118.738 0.24 117.778 0.24C116.77 0.24 115.978 1.008 115.978 1.992C115.978 2.976 116.77 3.768 117.778 3.768ZM116.314 18H119.242V6.144H116.314V18ZM128.795 18V11.616C128.795 9.696 129.899 8.448 131.699 8.448C133.211 8.448 134.195 9.408 134.195 11.4V18H137.123V10.704C137.123 7.632 135.587 5.784 132.611 5.784C131.003 5.784 129.563 6.48 128.819 7.68L128.579 6.144H125.867V18H128.795ZM147.631 18V8.592H149.935V6.144H147.631V2.448H144.703V6.144H142.423V8.592H144.703V18H147.631Z"
    fill="#334155" />
</svg>