<svg width="39" height="38" viewBox="0 0 39 38" fill="none" xmlns="http://www.w3.org/2000/svg">
  <path
    d="M4.5 37.75C3.46875 37.75 2.58625 37.3831 1.8525 36.6494C1.1175 35.9144 0.75 35.0312 0.75 34V26.5H4.5V34H12V37.75H4.5ZM0.75 11.5V4C0.75 2.96875 1.1175 2.08562 1.8525 1.35062C2.58625 0.616875 3.46875 0.25 4.5 0.25H12V4H4.5V11.5H0.75ZM27 37.75V34H34.5V26.5H38.25V34C38.25 35.0312 37.8831 35.9144 37.1494 36.6494C36.4144 37.3831 35.5312 37.75 34.5 37.75H27ZM34.5 11.5V4H27V0.25H34.5C35.5312 0.25 36.4144 0.616875 37.1494 1.35062C37.8831 2.08562 38.25 2.96875 38.25 4V11.5H34.5ZM19.5 19C17.9062 19 16.5706 18.4606 15.4931 17.3819C14.4144 16.3044 13.875 14.9688 13.875 13.375C13.875 11.8125 14.4144 10.4844 15.4931 9.39062C16.5706 8.29688 17.9062 7.75 19.5 7.75C21.0625 7.75 22.3906 8.29688 23.4844 9.39062C24.5781 10.4844 25.125 11.8125 25.125 13.375C25.125 14.9688 24.5781 16.3044 23.4844 17.3819C22.3906 18.4606 21.0625 19 19.5 19ZM8.25 30.25V26.6875C8.25 26.0312 8.41437 25.4144 8.74312 24.8369C9.07063 24.2581 9.51562 23.7969 10.0781 23.4531C11.5156 22.6094 13.0231 21.9688 14.6006 21.5312C16.1794 21.0938 17.8125 20.875 19.5 20.875C21.1875 20.875 22.8206 21.0938 24.3994 21.5312C25.9769 21.9688 27.4844 22.6094 28.9219 23.4531C29.4844 23.7969 29.93 24.2581 30.2588 24.8369C30.5863 25.4144 30.75 26.0312 30.75 26.6875V30.25H8.25Z"
    fill="#334155" />
</svg>