<svg viewBox="0 0 81 80" fill="none" xmlns="http://www.w3.org/2000/svg">
  <g clip-path="url(#clip0_699_40635)">
    <rect x="0.5" width="80" height="80" rx="40" />
    <path
      d="M48.8333 50.9167H46.75V48.8333C46.75 48.0045 46.4207 47.2097 45.8347 46.6236C45.2486 46.0376 44.4538 45.7083 43.625 45.7083H37.375C36.5462 45.7083 35.7513 46.0376 35.1653 46.6236C34.5792 47.2097 34.25 48.0045 34.25 48.8333V50.9167H32.1666V48.8333C32.1666 47.452 32.7154 46.1272 33.6921 45.1505C34.6689 44.1737 35.9936 43.625 37.375 43.625H43.625C45.0063 43.625 46.3311 44.1737 47.3078 45.1505C48.2846 46.1272 48.8333 47.452 48.8333 48.8333V50.9167ZM40.5 41.5417C39.6792 41.5417 38.8665 41.38 38.1082 41.0659C37.3499 40.7518 36.6609 40.2914 36.0805 39.7111C35.5002 39.1307 35.0398 38.4417 34.7257 37.6834C34.4116 36.9251 34.25 36.1124 34.25 35.2917C34.25 34.4709 34.4116 33.6582 34.7257 32.8999C35.0398 32.1416 35.5002 31.4526 36.0805 30.8722C36.6609 30.2919 37.3499 29.8315 38.1082 29.5174C38.8665 29.2033 39.6792 29.0417 40.5 29.0417C42.1576 29.0417 43.7473 29.7001 44.9194 30.8722C46.0915 32.0443 46.75 33.6341 46.75 35.2917C46.75 36.9493 46.0915 38.539 44.9194 39.7111C43.7473 40.8832 42.1576 41.5417 40.5 41.5417ZM40.5 39.4583C41.605 39.4583 42.6648 39.0193 43.4462 38.2379C44.2276 37.4565 44.6666 36.3967 44.6666 35.2917C44.6666 34.1866 44.2276 33.1268 43.4462 32.3454C42.6648 31.564 41.605 31.125 40.5 31.125C39.3949 31.125 38.3351 31.564 37.5537 32.3454C36.7723 33.1268 36.3333 34.1866 36.3333 35.2917C36.3333 36.3967 36.7723 37.4565 37.5537 38.2379C38.3351 39.0193 39.3949 39.4583 40.5 39.4583Z"
      fill="#0284C7" />
    <rect x="26.5" y="25.5" width="29" height="29" rx="14.5" stroke="#0EA5E9" />
    <path
      d="M69.8333 29.9167H67.75V27.8333C67.75 27.0045 67.4207 26.2097 66.8347 25.6236C66.2486 25.0376 65.4538 24.7083 64.625 24.7083H58.375C57.5462 24.7083 56.7513 25.0376 56.1653 25.6236C55.5792 26.2097 55.25 27.0045 55.25 27.8333V29.9167H53.1666V27.8333C53.1666 26.452 53.7154 25.1272 54.6921 24.1505C55.6689 23.1737 56.9936 22.625 58.375 22.625H64.625C66.0063 22.625 67.3311 23.1737 68.3078 24.1505C69.2846 25.1272 69.8333 26.452 69.8333 27.8333V29.9167ZM61.5 20.5417C60.6792 20.5417 59.8665 20.38 59.1082 20.0659C58.3499 19.7518 57.6609 19.2914 57.0805 18.7111C56.5002 18.1307 56.0398 17.4417 55.7257 16.6834C55.4116 15.9251 55.25 15.1124 55.25 14.2917C55.25 13.4709 55.4116 12.6582 55.7257 11.8999C56.0398 11.1416 56.5002 10.4526 57.0805 9.87224C57.6609 9.29187 58.3499 8.8315 59.1082 8.51741C59.8665 8.20332 60.6792 8.04166 61.5 8.04166C63.1576 8.04166 64.7473 8.70014 65.9194 9.87224C67.0915 11.0443 67.75 12.6341 67.75 14.2917C67.75 15.9493 67.0915 17.539 65.9194 18.7111C64.7473 19.8832 63.1576 20.5417 61.5 20.5417ZM61.5 18.4583C62.605 18.4583 63.6648 18.0193 64.4462 17.2379C65.2276 16.4565 65.6666 15.3967 65.6666 14.2917C65.6666 13.1866 65.2276 12.1268 64.4462 11.3454C63.6648 10.564 62.605 10.125 61.5 10.125C60.3949 10.125 59.3351 10.564 58.5537 11.3454C57.7723 12.1268 57.3333 13.1866 57.3333 14.2917C57.3333 15.3967 57.7723 16.4565 58.5537 17.2379C59.3351 18.0193 60.3949 18.4583 61.5 18.4583Z"
      fill="#E2E8F0" />
    <path d="M53.0001 49L63.0001 59" stroke="#0EA5E9" stroke-width="2" stroke-linecap="round" />
    <path
      d="M30.8333 67.9167H28.75V65.8333C28.75 65.0045 28.4207 64.2097 27.8347 63.6236C27.2486 63.0376 26.4538 62.7083 25.625 62.7083H19.375C18.5462 62.7083 17.7513 63.0376 17.1653 63.6236C16.5792 64.2097 16.25 65.0045 16.25 65.8333V67.9167H14.1666V65.8333C14.1666 64.452 14.7154 63.1272 15.6921 62.1505C16.6689 61.1737 17.9936 60.625 19.375 60.625H25.625C27.0063 60.625 28.3311 61.1737 29.3078 62.1505C30.2846 63.1272 30.8333 64.452 30.8333 65.8333V67.9167ZM22.5 58.5417C21.6792 58.5417 20.8665 58.38 20.1082 58.0659C19.3499 57.7518 18.6609 57.2915 18.0805 56.7111C17.5002 56.1307 17.0398 55.4417 16.7257 54.6834C16.4116 53.9252 16.25 53.1124 16.25 52.2917C16.25 51.4709 16.4116 50.6582 16.7257 49.8999C17.0398 49.1416 17.5002 48.4526 18.0805 47.8723C18.6609 47.2919 19.3499 46.8315 20.1082 46.5174C20.8665 46.2033 21.6792 46.0417 22.5 46.0417C24.1576 46.0417 25.7473 46.7002 26.9194 47.8723C28.0915 49.0444 28.75 50.6341 28.75 52.2917C28.75 53.9493 28.0915 55.539 26.9194 56.7111C25.7473 57.8832 24.1576 58.5417 22.5 58.5417ZM22.5 56.4583C23.605 56.4583 24.6648 56.0194 25.4462 55.238C26.2276 54.4565 26.6666 53.3967 26.6666 52.2917C26.6666 51.1866 26.2276 50.1268 25.4462 49.3454C24.6648 48.564 23.605 48.125 22.5 48.125C21.3949 48.125 20.3351 48.564 19.5537 49.3454C18.7723 50.1268 18.3333 51.1866 18.3333 52.2917C18.3333 53.3967 18.7723 54.4565 19.5537 55.238C20.3351 56.0194 21.3949 56.4583 22.5 56.4583Z"
      fill="#E2E8F0" />
    <path
      d="M27.8333 32.9167H25.75V30.8333C25.75 30.0045 25.4207 29.2097 24.8347 28.6236C24.2486 28.0376 23.4538 27.7083 22.625 27.7083H16.375C15.5462 27.7083 14.7513 28.0376 14.1653 28.6236C13.5792 29.2097 13.25 30.0045 13.25 30.8333V32.9167H11.1666V30.8333C11.1666 29.452 11.7154 28.1272 12.6921 27.1505C13.6689 26.1737 14.9936 25.625 16.375 25.625H22.625C24.0063 25.625 25.3311 26.1737 26.3078 27.1505C27.2846 28.1272 27.8333 29.452 27.8333 30.8333V32.9167ZM19.5 23.5417C18.6792 23.5417 17.8665 23.38 17.1082 23.0659C16.3499 22.7518 15.6609 22.2914 15.0805 21.7111C14.5002 21.1307 14.0398 20.4417 13.7257 19.6834C13.4116 18.9251 13.25 18.1124 13.25 17.2917C13.25 16.4709 13.4116 15.6582 13.7257 14.8999C14.0398 14.1416 14.5002 13.4526 15.0805 12.8722C15.6609 12.2919 16.3499 11.8315 17.1082 11.5174C17.8665 11.2033 18.6792 11.0417 19.5 11.0417C21.1576 11.0417 22.7473 11.7001 23.9194 12.8722C25.0915 14.0443 25.75 15.6341 25.75 17.2917C25.75 18.9493 25.0915 20.539 23.9194 21.7111C22.7473 22.8832 21.1576 23.5417 19.5 23.5417ZM19.5 21.4583C20.605 21.4583 21.6648 21.0193 22.4462 20.2379C23.2276 19.4565 23.6666 18.3967 23.6666 17.2917C23.6666 16.1866 23.2276 15.1268 22.4462 14.3454C21.6648 13.564 20.605 13.125 19.5 13.125C18.3949 13.125 17.3351 13.564 16.5537 14.3454C15.7723 15.1268 15.3333 16.1866 15.3333 17.2917C15.3333 18.3967 15.7723 19.4565 16.5537 20.2379C17.3351 21.0193 18.3949 21.4583 19.5 21.4583Z"
      fill="#E2E8F0" />
  </g>
  <defs>
    <clipPath id="clip0_699_40635">
      <rect x="0.5" width="80" height="80" rx="40" fill="white" />
    </clipPath>
  </defs>
</svg>